<svg xmlns="http://www.w3.org/2000/svg" width="203" height="30" viewBox="0 0 203 30" fill="none">
  <g clip-path="url(#clip0_448_342)">
    <path d="M51.1376 0.361165C50.3158 1.22913 49.7446 2.32427 49.5465 3.40777C49.4066 4.20582 49.4183 5.22524 49.5756 5.76116C49.6164 5.89515 49.6106 5.90097 49.3833 5.86602C49.1676 5.83107 48.0428 5.47573 47.763 5.35922C47.5299 5.26019 46.7023 5.02136 46.2768 4.93398C45.3559 4.74175 45.117 4.71262 44.3243 4.70097C43.5841 4.69514 43.4792 4.7068 43.2169 4.82913C43.0596 4.89903 42.7274 5.02718 42.4884 5.10874L42.0571 5.25437L41.7599 5.09709C41.6025 5.01553 41.3111 4.85243 41.1187 4.74757C40.7632 4.54369 40.5417 4.49709 40.4776 4.60194C40.3669 4.78252 40.3319 4.58447 40.3319 3.78641C40.3319 2.9301 40.3319 2.91262 40.2037 2.88349C40.1279 2.87184 39.242 2.84854 38.2337 2.83107C37.2254 2.81942 36.3221 2.79029 36.223 2.76699L36.0481 2.73204L36.2463 2.9068C36.5319 3.16311 37.0564 3.41942 38.3794 3.96116C39.0206 4.22913 39.6733 4.50874 39.8249 4.58447C40.0988 4.71845 40.1104 4.73592 40.0755 4.9165C40.058 5.02136 40.0347 8.24854 40.0347 12.0932C40.0289 17.4349 40.0463 19.165 40.0988 19.4447C40.1396 19.6427 40.1629 19.8233 40.1454 19.8408C40.0813 19.9049 39.9414 19.7883 39.8365 19.5845C39.7724 19.468 39.6034 19.1592 39.4577 18.9029C39.1837 18.4194 39.108 18.268 38.8457 17.6796C38.7583 17.4874 38.6417 17.2252 38.5834 17.0971C38.531 16.9689 38.461 16.7301 38.4377 16.5612C38.4144 16.3922 38.3678 16.235 38.3328 16.2058C38.2454 16.1359 37.5402 15.9728 36.3395 15.7573C36.0539 15.7049 35.7392 15.6408 35.6401 15.6116C35.5469 15.5825 35.0865 15.5184 34.6202 15.4602C33.7751 15.3612 33.4545 15.2505 33.4545 15.0641C33.4545 14.8893 33.9266 14.6796 34.3171 14.6796C34.4978 14.6796 35.2788 14.5456 35.6693 14.4466C35.78 14.4175 36.1122 14.3534 36.3978 14.301C37.8782 14.0388 38.0006 14.0039 38.0006 13.8757C38.0064 13.0835 38.1172 11.8544 38.2279 11.3883C38.4319 10.5437 38.5018 10.2757 38.6825 9.73398C38.7933 9.39612 38.9215 9.0699 38.9681 9.00582C39.0963 8.81942 39.0672 8.72039 38.8107 8.53398C38.6825 8.43495 37.8199 7.59612 36.9049 6.6699C34.3696 4.1068 34.2122 3.95534 33.7634 3.59417C33.5303 3.40777 33.338 3.23301 33.338 3.20971C33.338 3.18058 33.9558 3.17476 34.7076 3.19223C35.9782 3.21553 36.0773 3.21553 36.0773 3.1165C36.0773 2.94175 35.8441 2.67961 35.5644 2.55728C35.4128 2.48738 35.1331 2.35922 34.9407 2.27184C34.4162 2.03301 32.691 1.32816 32.0266 1.07767C31.706 0.961165 31.3913 0.84466 31.3272 0.815534C31.1057 0.72233 30.7152 0.582524 30.6861 0.582524C30.5637 0.582524 30.8143 0.873786 31.8984 1.99223C32.5745 2.69709 33.1631 3.33204 33.2039 3.39612C33.3088 3.58252 33.3088 14.6272 33.2097 14.7262C33.1689 14.767 33.0349 14.7961 32.9067 14.7961C32.5861 14.7961 32.0208 14.965 31.9042 15.0932C31.7352 15.2796 31.8809 15.3612 32.4521 15.3903C33.0699 15.4252 33.2797 15.5243 33.3904 15.8155C33.542 16.2408 33.6818 16.2175 30.1033 16.2524C28.3548 16.2699 26.8977 16.2699 26.8685 16.2641C26.8277 16.2466 26.8103 13.9515 26.8103 9.58252V2.91845L26.6121 2.86602C26.4955 2.83107 24.9743 2.83107 22.6955 2.86019C20.6497 2.88932 14.699 2.9068 9.47105 2.9068L-0.029086 2.89515L-0.0465709 9.68155L-0.0582275 16.468L1.03167 16.5029C1.63781 16.5262 3.06574 16.5437 4.21392 16.5437H6.29462V23.2718C6.29462 26.9709 6.31211 30 6.34125 30C6.48113 29.9883 6.95905 29.534 10.0539 26.4583L13.4634 23.0563L13.4343 22.4097C13.4168 22.0485 13.3935 20.5806 13.376 19.1417C13.3527 17.1087 13.3644 16.4854 13.4168 16.3515C13.4576 16.2524 13.6441 15.868 13.8365 15.501L14.7282 13.7184C15.0313 13.1068 15.3693 12.4252 15.4859 12.2039C15.9638 11.2777 17.7239 7.78835 18.0328 7.16505C18.2135 6.79806 18.3884 6.45437 18.4117 6.40777C18.8604 5.56311 19.4141 4.39806 19.4957 4.13592C19.5715 3.87961 19.758 3.5534 19.8221 3.5534C19.8629 3.5534 19.8746 3.60582 19.8571 3.68738C19.8338 3.75728 19.8163 8.14369 19.8105 13.433C19.8046 22.4738 19.8105 23.068 19.9037 23.2194C20.0902 23.5282 26.717 30.0524 26.7811 29.9942C26.8161 29.9534 26.8394 28.7301 26.8394 26.5456V23.1553L30.0741 19.934C31.8517 18.1689 33.3088 16.7184 33.3088 16.7184C33.3088 16.7184 33.303 18.1689 33.2913 19.9398L33.2738 23.1612L33.6993 23.5631C33.9324 23.7845 35.2671 25.0893 36.6659 26.4699C39.9006 29.6738 40.1804 29.9417 40.2911 29.9417C40.3669 29.9417 40.3727 29.5631 40.3552 26.8136C40.3319 24.0175 40.3203 23.6738 40.2328 23.5806C40.1804 23.5223 40.1163 23.4757 40.0871 23.4757C39.9706 23.4757 39.2245 24.0116 38.7291 24.4544C37.8724 25.2233 37.6975 25.2524 38.1929 24.5417C38.3678 24.2913 38.7 23.7437 38.9331 23.3301C39.1663 22.9107 39.4052 22.5029 39.4693 22.4155C39.5276 22.3282 39.6675 22.0835 39.7724 21.8621C40.1571 21.0932 40.2911 21.0641 40.1396 21.7748C39.9298 22.8 39.9065 23.0447 40.0114 23.2078C40.0638 23.2893 40.1512 23.365 40.2037 23.3825C40.262 23.3942 40.3611 23.4233 40.431 23.4466C40.5301 23.4757 40.6641 23.3825 41.0954 23.0097C41.8065 22.3806 41.8589 22.3573 42.0979 22.5845C42.9955 23.4233 44.5691 24.3786 45.898 24.8854C46.7955 25.2349 47.0811 25.3107 48.3633 25.567C48.882 25.6718 49.6106 25.6485 49.9137 25.5146L50.1818 25.4039L50.4557 25.5495C50.7063 25.6951 50.7529 25.701 51.2542 25.666C51.5456 25.6427 51.8778 25.6019 51.9885 25.5728C52.0993 25.5437 52.379 25.4738 52.6005 25.4214C53.0726 25.3049 53.8652 25.0544 54.3082 24.8796C54.4772 24.8097 54.6521 24.7573 54.6929 24.7573C54.7628 24.7573 56.622 26.0505 57.1349 26.4641C57.269 26.5689 57.5371 26.7612 57.7294 26.8835C58.4113 27.3262 59.134 27.868 59.612 28.299C60.0782 28.7243 60.2298 28.7942 60.1074 28.5262C60.0724 28.4563 59.9966 28.2641 59.9442 28.1068C59.7985 27.7049 59.3147 26.7961 58.9708 26.2777C58.5745 25.6893 57.8168 24.4777 57.8168 24.4311C57.8168 24.4136 57.7411 24.2913 57.6478 24.1573C57.5546 24.0233 57.3972 23.7903 57.2981 23.6447L57.1174 23.3709L57.6303 22.9456C58.627 22.101 59.3322 21.3553 60.2822 20.1437L60.3871 20.0097L60.3463 20.1845C60.288 20.4524 60.2472 26.068 60.2939 28.1184C60.3288 29.6447 60.3522 29.9417 60.4221 29.9417C60.5153 29.9417 66.466 24.0349 66.8157 23.5864C66.944 23.4291 67.078 23.3068 67.1188 23.3126C67.1538 23.3243 68.6517 24.7806 70.4409 26.5573C72.2361 28.3282 73.7514 29.8194 73.8214 29.8602C73.9146 29.9243 74.5557 29.9417 77.2601 29.9417L80.5764 29.9476L80.6055 26.4816L80.6347 23.0155L84.0734 26.4175C85.9676 28.2874 87.5295 29.8194 87.5587 29.8252C87.582 29.8252 87.5995 26.8893 87.5995 23.2951C87.5995 19.2116 87.6228 16.7767 87.6519 16.7883C87.6869 16.7942 88.9108 18 90.3796 19.4505C92.7226 21.7806 94.6051 23.6388 99.769 28.7476L101.063 30.0291V2.91262H94.0689V6.08738C94.0689 8.01553 94.0456 9.26213 94.0164 9.26213C93.9873 9.26213 92.5186 7.83495 90.7584 6.08738L87.5528 2.91262H80.5472L80.5414 6.21553V9.52427L80.3549 9.29126C80.2558 9.16311 78.7929 7.67767 77.1085 5.98252L74.0545 2.91262H67.0431L65.6792 4.2699C61.9841 7.93981 61.3896 8.50485 61.2089 8.50485C61.0749 8.50485 61.0224 8.4699 60.9641 8.33592C60.9058 8.19029 60.9175 8.11456 61.0574 7.77087C61.1448 7.54951 61.442 6.99029 61.7218 6.52427C62.0016 6.05825 62.4037 5.3534 62.6135 4.95146C62.8175 4.54951 63.1614 3.94951 63.377 3.61748C63.5869 3.28544 63.7617 2.98835 63.7617 2.95922C63.7617 2.84854 63.412 2.92427 63.2022 3.08738C63.074 3.18058 62.8583 3.34369 62.7184 3.44854C62.5844 3.5534 62.4329 3.6699 62.3979 3.71068C62.3571 3.74563 62.0249 3.99029 61.6577 4.25825C61.2963 4.52039 60.8242 4.88155 60.6144 5.05048C59.9325 5.61553 59.408 5.99417 59.2506 6.03495C59.1224 6.06408 59.0408 6.02913 58.8193 5.84272C57.9043 5.08544 56.861 4.71845 55.6254 4.71845C54.6113 4.71845 53.5971 4.93398 52.4082 5.4C51.3241 5.82524 50.4732 6.02913 50.3858 5.88349C50.3333 5.80194 50.4499 4.81748 50.5723 4.33981C50.7762 3.51845 51.1667 2.63301 51.5164 2.20777C51.6097 2.09709 51.9128 1.86408 52.1867 1.69515C52.4665 1.52621 52.7171 1.33981 52.7462 1.28155C52.7987 1.18835 52.7462 1.1068 52.449 0.792233C52.1401 0.460194 51.5922 0 51.5106 0C51.4931 0 51.3241 0.163107 51.1376 0.361165ZM61.3138 9.44854C61.3779 9.5534 61.4479 9.70485 61.4654 9.78641C61.4828 9.86796 61.5178 9.98446 61.547 10.0485C61.7451 10.5204 62.0132 11.9476 62.0657 12.7864L62.1006 13.4272L62.4795 13.4913C62.8642 13.5612 63.1439 13.6194 63.82 13.7767C64.9332 14.0388 66.5243 14.3767 67.6375 14.5922C67.894 14.6447 68.2087 14.7087 68.3369 14.7379C69.1587 14.9301 70.5867 15.2738 70.7557 15.3204C70.8664 15.3495 71.1695 15.4194 71.4259 15.466C71.6824 15.5184 71.9855 15.5883 72.0962 15.6175C72.2069 15.6466 72.6324 15.7049 73.0462 15.7456C73.4542 15.7864 73.7981 15.8447 73.8039 15.8738C73.8097 15.9087 73.6698 15.9553 73.495 15.9786C72.9063 16.066 72.2477 16.1883 71.8048 16.2874C71.5658 16.3398 71.2511 16.4039 71.1054 16.4272C70.7207 16.4971 69.59 16.701 69.386 16.7359C69.2928 16.7534 68.9606 16.8116 68.6575 16.8641C68.3544 16.9165 67.9756 16.9864 67.8124 17.0097C67.1596 17.1262 66.4544 17.2485 66.2096 17.301C66.0639 17.3243 65.7142 17.3942 65.4228 17.4466C65.1372 17.499 64.7817 17.5689 64.636 17.5981C64.4902 17.6272 64.1522 17.6913 63.8783 17.7379C63.6043 17.7845 63.2663 17.8485 63.1206 17.8777C62.9749 17.9068 62.6485 17.9709 62.3921 18.0233C61.3197 18.2272 60.8417 18.4311 60.7601 18.7107C60.7019 18.9204 60.5037 19.3398 60.4629 19.3398C60.4454 19.3398 60.4454 19.2291 60.4687 19.0893C60.492 18.9553 60.527 16.765 60.5445 14.2194L60.5853 9.6L60.7893 9.43107C61.0457 9.21553 61.1739 9.21553 61.3138 9.44854ZM80.5006 22.7883C80.4715 22.8175 80.3374 22.6893 80.1975 22.5087C79.9935 22.2349 76.4907 18.734 74.6024 16.9107L74.107 16.433L77.2018 13.3282C78.9095 11.6214 80.3491 10.1301 80.4073 10.0194C80.5181 9.82136 80.5181 9.94951 80.5356 16.2757C80.5414 19.8349 80.5239 22.765 80.5006 22.7883ZM53.1367 13.7709C53.2882 13.9049 53.2941 13.9282 53.2999 14.4816C53.2999 15.1107 53.2416 15.3262 52.8744 16.0194C52.5597 16.6078 52.2858 16.9981 51.9011 17.3942C51.6155 17.6971 51.5281 17.7553 51.4174 17.732C51.2542 17.6854 51.0735 17.4641 51.0036 17.2136C50.9511 17.0097 51.021 16.0136 51.1201 15.6408C51.3183 14.9068 51.8953 14.1437 52.4956 13.8175C52.9036 13.5961 52.9327 13.5961 53.1367 13.7709ZM47.9379 13.8583C48.5731 14.2194 49.2026 15.099 49.36 15.833C49.4649 16.3282 49.4416 17.2311 49.3192 17.4757C49.1735 17.7728 48.9287 17.7845 48.6198 17.5107C48.2817 17.2019 47.7455 16.4214 47.3842 15.699C47.0636 15.0641 47.0636 15.0583 47.0636 14.5282C47.0636 14.0388 47.0753 13.9748 47.2035 13.8408C47.39 13.6427 47.5765 13.6485 47.9379 13.8583ZM109.689 3.0233C109.66 3.08738 109.63 3.17476 109.63 3.21553C109.625 3.29709 109.298 3.96699 108.715 5.06796C108.523 5.43495 107.999 6.46019 107.55 7.3398C106.501 9.39029 106.122 10.1301 104.484 13.2524L103.144 15.8155L103.114 22.5845L103.085 29.3592H110.091L110.056 26.1262L110.021 22.8932L111.006 21.9204C112.941 20.0097 116.286 16.7476 116.339 16.7301C116.368 16.7184 116.391 19.3398 116.391 23.033V29.3592H119.877L123.356 29.3534L126.667 26.068L129.977 22.7825L129.971 19.5903C129.971 17.8369 129.965 16.3631 129.971 16.3165C129.971 16.2466 130.379 16.2408 132.553 16.2583C133.969 16.2641 135.456 16.2699 135.858 16.2641L136.592 16.2524L139.477 13.3806C141.068 11.8078 142.479 10.3922 142.613 10.235C142.747 10.0835 142.869 9.96116 142.881 9.96116C142.898 9.96116 142.91 14.2777 142.91 19.5553V29.7786L143.679 29.0621C144.099 28.666 145.469 27.332 146.722 26.0971C147.975 24.8621 149.216 23.6447 149.484 23.3942L149.962 22.934V16.2699L153.197 16.2757L156.426 16.2816L157.574 15.1456C158.204 14.5223 159.235 13.4796 159.865 12.8388C160.494 12.1922 161.258 11.4524 161.567 11.1961C161.875 10.934 162.266 10.5495 162.441 10.3282L162.755 9.93204L162.773 19.6427L162.785 29.3592H172.972L183.155 29.3534L182.513 28.7592C182.164 28.433 180.951 27.2447 179.832 26.1262C178.708 25.0019 177.507 23.8252 177.163 23.5107L176.539 22.934V2.91262L169.68 2.92427L162.814 2.94175L162.796 6.10485L162.785 9.27379L162.499 8.9301C162.342 8.74369 161.438 7.8466 160.5 6.93204C159.562 6.0233 158.274 4.74757 157.632 4.09515L156.478 2.91262H149.589L146.401 6.0932C143.679 8.79612 143.184 9.26796 143.062 9.25048C142.957 9.23883 141.978 8.30097 139.734 6.0699L136.551 2.91262H133.13L129.709 2.91845L126.404 6.19223C123.455 9.11068 123.094 9.48932 123.059 9.68738C123.041 9.80971 123.03 11.2311 123.047 12.8447C123.059 14.4641 123.053 15.7864 123.03 15.7864C122.936 15.7864 122.797 15.466 122.651 14.9126C122.622 14.7961 121.503 12.5359 120.098 9.75728C119.987 9.5301 119.702 8.9534 119.463 8.47573C118.542 6.61165 116.747 3.07573 116.677 2.99417C116.619 2.92427 116.077 2.91262 113.18 2.91262C109.852 2.91262 109.747 2.91845 109.689 3.0233ZM110.516 3.75728C110.755 4.04272 112.177 5.4932 113.675 6.97864L116.391 9.67573V15.9029H110.056L110.021 14.2311C109.963 11.8136 109.969 3.19223 110.027 3.21553C110.056 3.22136 110.277 3.46602 110.516 3.75728ZM189.012 3.27379C188.837 3.47767 188.528 3.79806 188.324 3.99029C188.12 4.18252 186.774 5.51068 185.334 6.94369L182.717 9.54757V16.1476C182.723 21.2155 182.741 22.7767 182.793 22.8757C182.834 22.9398 183.085 23.2078 183.359 23.4699C183.632 23.7262 185.09 25.1592 186.593 26.6505L189.333 29.3592H196.385L199.736 26.0505C201.916 23.8951 203.064 22.7184 203.035 22.6718C203.006 22.6194 201.485 22.6019 196.321 22.6019H189.653V16.2816H192.911C195.516 16.2816 196.192 16.2641 196.251 16.2058C196.315 16.1417 195.75 15.5534 193.08 12.8971L189.84 9.6699H196.42C202.242 9.6699 203 9.65825 203 9.58252C203 9.53592 202.93 9.43689 202.843 9.36699C202.691 9.24466 198.122 4.72427 196.898 3.47767L196.332 2.91262H189.327L189.012 3.27379Z" fill="white"/>
  </g>
  <defs>
    <clipPath id="clip0_448_342">
      <rect width="203" height="30" fill="white"/>
    </clipPath>
  </defs>
</svg>