<svg width="188" height="165" viewBox="0 0 188 165" fill="none" xmlns="http://www.w3.org/2000/svg">
<path d="M30.3362 155.234C29.7267 155.234 29.2142 155.038 28.7987 154.647C28.4108 154.228 28.2169 153.711 28.2169 153.096V141.108C28.2169 139.347 27.7875 138.048 26.9287 137.21C26.0699 136.343 24.948 135.91 23.5628 135.91C22.1223 135.91 20.931 136.413 19.9891 137.419C19.0749 138.425 18.6178 139.711 18.6178 141.275H15.1688C15.1688 139.459 15.5566 137.866 16.3323 136.497C17.108 135.1 18.1884 134.01 19.5736 133.228C20.9864 132.445 22.5932 132.054 24.3939 132.054C25.973 132.054 27.372 132.403 28.5909 133.102C29.8099 133.8 30.7518 134.834 31.4166 136.204C32.1092 137.545 32.4555 139.18 32.4555 141.108V153.096C32.4555 153.711 32.2616 154.228 31.8737 154.647C31.4859 155.038 30.9734 155.234 30.3362 155.234ZM2.61929 155.234C2.00982 155.234 1.49731 155.038 1.08176 154.647C0.693921 154.228 0.5 153.711 0.5 153.096V134.443C0.5 133.8 0.693921 133.283 1.08176 132.892C1.49731 132.501 2.00982 132.305 2.61929 132.305C3.25646 132.305 3.76896 132.501 4.15681 132.892C4.54465 133.283 4.73857 133.8 4.73857 134.443V153.096C4.73857 153.711 4.54465 154.228 4.15681 154.647C3.76896 155.038 3.25646 155.234 2.61929 155.234ZM16.4985 155.234C15.8891 155.234 15.3766 155.038 14.961 154.647C14.5732 154.228 14.3792 153.711 14.3792 153.096V141.108C14.3792 139.347 13.9498 138.048 13.091 137.21C12.2323 136.343 11.1103 135.91 9.72512 135.91C8.28456 135.91 7.09333 136.413 6.15143 137.419C5.20952 138.425 4.73857 139.711 4.73857 141.275H2.12063C2.12063 139.459 2.48077 137.866 3.20105 136.497C3.92133 135.1 4.91864 134.01 6.19298 133.228C7.46732 132.445 8.92173 132.054 10.5562 132.054C12.1353 132.054 13.5343 132.403 14.7532 133.102C15.9722 133.8 16.9141 134.834 17.5789 136.204C18.2715 137.545 18.6178 139.18 18.6178 141.108V153.096C18.6178 153.711 18.4239 154.228 18.036 154.647C17.6482 155.038 17.1357 155.234 16.4985 155.234Z" fill="#A055FF"/>
<path d="M48.4323 155.401C46.5208 155.401 44.8032 154.996 43.2795 154.186C41.7835 153.347 40.5923 152.132 39.7058 150.539C38.847 148.946 38.4176 146.99 38.4176 144.671V134.359C38.4176 133.745 38.6115 133.242 38.9994 132.85C39.4149 132.431 39.9274 132.222 40.5369 132.222C41.1464 132.222 41.645 132.431 42.0329 132.85C42.4484 133.242 42.6562 133.745 42.6562 134.359V144.671C42.6562 146.236 42.9471 147.535 43.5288 148.569C44.1106 149.575 44.9001 150.329 45.8974 150.832C46.8947 151.307 48.0167 151.545 49.2634 151.545C50.4546 151.545 51.5073 151.307 52.4215 150.832C53.3634 150.357 54.1114 149.715 54.6655 148.904C55.2195 148.094 55.4966 147.186 55.4966 146.18H58.1145C58.1145 147.912 57.6851 149.477 56.8263 150.874C55.9952 152.271 54.8455 153.375 53.3773 154.186C51.9367 154.996 50.2884 155.401 48.4323 155.401ZM57.6158 155.192C57.0064 155.192 56.4939 154.996 56.0783 154.605C55.6905 154.186 55.4966 153.669 55.4966 153.054V134.359C55.4966 133.717 55.6905 133.2 56.0783 132.808C56.4939 132.417 57.0064 132.222 57.6158 132.222C58.253 132.222 58.7655 132.417 59.1534 132.808C59.5412 133.2 59.7351 133.717 59.7351 134.359V153.054C59.7351 153.669 59.5412 154.186 59.1534 154.605C58.7655 154.996 58.253 155.192 57.6158 155.192Z" fill="white"/>
<path d="M74.8461 155.359C72.9069 155.359 71.1062 155.066 69.444 154.479C67.8095 153.864 66.5352 153.096 65.6209 152.174C65.2054 151.727 65.0253 151.224 65.0807 150.665C65.1638 150.078 65.4409 149.603 65.9118 149.24C66.4659 148.792 67.0061 148.611 67.5325 148.695C68.0865 148.751 68.5575 148.988 68.9453 149.407C69.4163 149.938 70.1642 150.441 71.1893 150.916C72.242 151.363 73.4055 151.587 74.6798 151.587C76.2866 151.587 77.5056 151.321 78.3367 150.79C79.1954 150.259 79.6387 149.575 79.6664 148.737C79.6941 147.898 79.2924 147.172 78.4613 146.557C77.6579 145.942 76.1758 145.439 74.015 145.048C71.217 144.489 69.1808 143.651 67.9064 142.533C66.6598 141.415 66.0365 140.046 66.0365 138.425C66.0365 137 66.452 135.826 67.2831 134.904C68.1142 133.954 69.1808 133.255 70.4828 132.808C71.7849 132.333 73.1423 132.096 74.5552 132.096C76.3836 132.096 78.0042 132.389 79.4171 132.976C80.8299 133.563 81.9519 134.373 82.783 135.407C83.1708 135.854 83.3509 136.329 83.3232 136.832C83.2955 137.307 83.06 137.713 82.6168 138.048C82.1735 138.355 81.6472 138.453 81.0377 138.341C80.4282 138.23 79.9157 137.978 79.5002 137.587C78.8076 136.916 78.0596 136.455 77.2562 136.204C76.4528 135.952 75.5248 135.826 74.4721 135.826C73.2531 135.826 72.2143 136.036 71.3555 136.455C70.5244 136.874 70.1088 137.489 70.1088 138.299C70.1088 138.802 70.2335 139.263 70.4828 139.683C70.7599 140.074 71.2862 140.437 72.0619 140.772C72.8376 141.08 73.9734 141.387 75.4694 141.695C77.5471 142.114 79.1816 142.645 80.3728 143.287C81.5918 143.93 82.4644 144.685 82.9908 145.551C83.5171 146.389 83.7803 147.367 83.7803 148.485C83.7803 149.77 83.434 150.93 82.7414 151.964C82.0766 152.998 81.0793 153.822 79.7495 154.437C78.4475 155.052 76.813 155.359 74.8461 155.359Z" fill="white"/>
<path d="M91.0511 155.192C90.4416 155.192 89.9291 154.996 89.5135 154.605C89.1257 154.186 88.9318 153.669 88.9318 153.054V134.401C88.9318 133.758 89.1257 133.242 89.5135 132.85C89.9291 132.459 90.4416 132.263 91.0511 132.263C91.6882 132.263 92.2007 132.459 92.5886 132.85C92.9764 133.242 93.1703 133.758 93.1703 134.401V153.054C93.1703 153.669 92.9764 154.186 92.5886 154.605C92.2007 154.996 91.6882 155.192 91.0511 155.192ZM91.0511 128.533C90.3031 128.533 89.6521 128.267 89.098 127.737C88.5716 127.178 88.3085 126.521 88.3085 125.766C88.3085 125.012 88.5716 124.369 89.098 123.838C89.6521 123.279 90.3031 123 91.0511 123C91.799 123 92.4362 123.279 92.9626 123.838C93.5166 124.369 93.7937 125.012 93.7937 125.766C93.7937 126.521 93.5166 127.178 92.9626 127.737C92.4362 128.267 91.799 128.533 91.0511 128.533Z" fill="white"/>
<path d="M102.552 165C101.942 165 101.43 164.79 101.014 164.371C100.626 163.98 100.432 163.477 100.432 162.862V143.749C100.46 141.541 100.973 139.557 101.97 137.796C102.967 136.036 104.325 134.653 106.042 133.647C107.76 132.613 109.699 132.096 111.86 132.096C114.048 132.096 116.001 132.613 117.719 133.647C119.437 134.653 120.794 136.036 121.791 137.796C122.816 139.557 123.329 141.541 123.329 143.749C123.329 145.956 122.858 147.94 121.916 149.701C121.002 151.433 119.741 152.816 118.135 153.85C116.528 154.856 114.713 155.359 112.691 155.359C111.056 155.359 109.547 155.024 108.162 154.353C106.804 153.655 105.641 152.719 104.671 151.545V162.862C104.671 163.477 104.477 163.98 104.089 164.371C103.701 164.79 103.189 165 102.552 165ZM111.86 151.587C113.273 151.587 114.533 151.251 115.641 150.581C116.749 149.882 117.622 148.946 118.259 147.772C118.924 146.571 119.257 145.23 119.257 143.749C119.257 142.24 118.924 140.898 118.259 139.725C117.622 138.523 116.749 137.587 115.641 136.916C114.533 136.218 113.273 135.868 111.86 135.868C110.475 135.868 109.214 136.218 108.078 136.916C106.97 137.587 106.098 138.523 105.46 139.725C104.823 140.898 104.505 142.24 104.505 143.749C104.505 145.23 104.823 146.571 105.46 147.772C106.098 148.946 106.97 149.882 108.078 150.581C109.214 151.251 110.475 151.587 111.86 151.587Z" fill="#4CE653"/>
<path d="M139.333 155.359C137.089 155.359 135.108 154.87 133.39 153.892C131.673 152.886 130.315 151.517 129.318 149.784C128.348 148.024 127.864 146.012 127.864 143.749C127.864 141.457 128.348 139.445 129.318 137.713C130.315 135.952 131.673 134.583 133.39 133.605C135.108 132.599 137.089 132.096 139.333 132.096C141.549 132.096 143.516 132.599 145.233 133.605C146.951 134.583 148.295 135.952 149.264 137.713C150.262 139.445 150.76 141.457 150.76 143.749C150.76 146.012 150.275 148.024 149.306 149.784C148.336 151.517 146.993 152.886 145.275 153.892C143.557 154.87 141.577 155.359 139.333 155.359ZM139.333 151.587C140.773 151.587 142.048 151.251 143.156 150.581C144.264 149.91 145.123 148.988 145.732 147.814C146.369 146.641 146.688 145.285 146.688 143.749C146.688 142.212 146.369 140.856 145.732 139.683C145.123 138.481 144.264 137.545 143.156 136.874C142.048 136.204 140.773 135.868 139.333 135.868C137.892 135.868 136.618 136.204 135.51 136.874C134.402 137.545 133.529 138.481 132.892 139.683C132.255 140.856 131.936 142.212 131.936 143.749C131.936 145.285 132.255 146.641 132.892 147.814C133.529 148.988 134.402 149.91 135.51 150.581C136.618 151.251 137.892 151.587 139.333 151.587Z" fill="white"/>
<path d="M158.481 140.856C158.481 139.18 158.883 137.685 159.686 136.371C160.517 135.03 161.626 133.968 163.011 133.186C164.396 132.403 165.919 132.012 167.582 132.012C169.244 132.012 170.477 132.291 171.28 132.85C172.111 133.381 172.43 134.024 172.236 134.778C172.153 135.17 171.986 135.477 171.737 135.701C171.515 135.896 171.252 136.022 170.948 136.078C170.643 136.134 170.31 136.12 169.95 136.036C168.177 135.673 166.584 135.645 165.171 135.952C163.759 136.259 162.637 136.832 161.806 137.671C161.002 138.509 160.6 139.571 160.6 140.856H158.481ZM158.523 155.192C157.858 155.192 157.345 155.024 156.985 154.689C156.625 154.325 156.445 153.794 156.445 153.096V134.359C156.445 133.689 156.625 133.172 156.985 132.808C157.345 132.445 157.858 132.263 158.523 132.263C159.215 132.263 159.728 132.445 160.06 132.808C160.42 133.144 160.6 133.661 160.6 134.359V153.096C160.6 153.766 160.42 154.283 160.06 154.647C159.728 155.01 159.215 155.192 158.523 155.192Z" fill="white"/>
<path d="M184.3 155.192C182.915 155.192 181.668 154.842 180.56 154.144C179.452 153.417 178.58 152.439 177.942 151.21C177.305 149.98 176.987 148.597 176.987 147.06V127.066C176.987 126.451 177.181 125.948 177.568 125.557C177.956 125.166 178.455 124.97 179.064 124.97C179.674 124.97 180.173 125.166 180.56 125.557C180.948 125.948 181.142 126.451 181.142 127.066V147.06C181.142 148.178 181.447 149.114 182.056 149.868C182.666 150.623 183.414 151 184.3 151H185.713C186.212 151 186.627 151.196 186.96 151.587C187.32 151.978 187.5 152.481 187.5 153.096C187.5 153.711 187.265 154.214 186.794 154.605C186.35 154.996 185.769 155.192 185.048 155.192H184.3ZM175.075 136.707C174.493 136.707 174.022 136.539 173.662 136.204C173.302 135.868 173.122 135.449 173.122 134.946C173.122 134.387 173.302 133.94 173.662 133.605C174.022 133.269 174.493 133.102 175.075 133.102H184.674C185.256 133.102 185.727 133.269 186.087 133.605C186.447 133.94 186.627 134.387 186.627 134.946C186.627 135.449 186.447 135.868 186.087 136.204C185.727 136.539 185.256 136.707 184.674 136.707H175.075Z" fill="white"/>
<path fill-rule="evenodd" clip-rule="evenodd" d="M85.5029 47.3096H44.5L44.5003 47.3099V92.7411L61.7646 111.87V66.4387L61.7645 66.4386H102.767L85.5029 47.3096Z" fill="#4CE653"/>
<path fill-rule="evenodd" clip-rule="evenodd" d="M61.7645 111.869H102.767L85.503 92.7401L44.5001 92.7401L61.7645 111.869ZM85.5032 92.74V47.3086L102.768 66.4376V111.869L85.5032 92.74Z" fill="white"/>
<path d="M86.0146 0H127.018L144.282 19.129H103.279L86.0146 0Z" fill="#A055FF"/>
<path d="M86.0146 0V45.4314L103.279 64.5604L103.279 19.129L86.0146 0Z" fill="white"/>
</svg>
